<?xml version="1.0" encoding="utf-8"?>
<!-- Generator: Adobe Illustrator 16.0.3, SVG Export Plug-In . SVG Version: 6.00 Build 0)  -->
<!DOCTYPE svg PUBLIC "-//W3C//DTD SVG 1.1//EN" "http://www.w3.org/Graphics/SVG/1.1/DTD/svg11.dtd">
<svg version="1.1"
	 id="svgWheelchair" xmlns:dc="http://purl.org/dc/elements/1.1/" xmlns:cc="http://creativecommons.org/ns#" xmlns:rdf="http://www.w3.org/1999/02/22-rdf-syntax-ns#" xmlns:svg="http://www.w3.org/2000/svg" xmlns:inkscape="http://www.inkscape.org/namespaces/inkscape" inkscape:version="0.48.4 r9939"
	 xmlns="http://www.w3.org/2000/svg" xmlns:xlink="http://www.w3.org/1999/xlink" x="0px" y="0px" width="400px" height="400px"
	 viewBox="0 0 400 400" enable-background="new 0 0 400 400" xml:space="preserve">
<path fill="#0B00EF" d="M374.5,313.425c0,33.731-27.344,61.075-61.075,61.075H86.575c-33.731,0-61.075-27.344-61.075-61.075V86.575
	C25.5,52.844,52.844,25.5,86.575,25.5h226.85c33.731,0,61.075,27.344,61.075,61.075V313.425z"/>
<path id="pathBlackWheelchair" fill="#FFFFFF" d="M156,103c14-2,25-14,25-27c0-15-12-27-27-27s-27,12-27,27c0,4,1,9,3,13l10,135h99
	l40,95l54-21l-9-19l-29,10l-40-90h-92l-1-17h67v-25h-70L156,103v3V103z M256,297c-17,33-52,54-89,54c-55,0-100-44-100-99
	c0-39,24-74,59-90l2,29c-21,13-34,37-34,61c0,40,33,72,73,72c36,0,67-28,71-64L256,297L256,297L256,297L256,297z"/>
</svg>
